<svg width="12" height="12" viewBox="0 0 12 12" fill="none" xmlns="http://www.w3.org/2000/svg">
<path fill-rule="evenodd" clip-rule="evenodd" d="M6.37512 1.33301C6.37512 1.1259 6.20723 0.958008 6.00012 0.958008C5.79302 0.958008 5.62512 1.1259 5.62512 1.33301V5.62476H1.3335C1.12639 5.62476 0.958496 5.79265 0.958496 5.99976C0.958496 6.20686 1.12639 6.37476 1.3335 6.37476H5.62512V10.6663C5.62512 10.8734 5.79302 11.0413 6.00012 11.0413C6.20723 11.0413 6.37512 10.8734 6.37512 10.6663V6.37476H10.6668C10.8739 6.37476 11.0418 6.20686 11.0418 5.99976C11.0418 5.79265 10.8739 5.62476 10.6668 5.62476H6.37512V1.33301Z" fill="white"/>
</svg>
